# xmcd
#
# Track frame offsets: 
#        182
#        21552
#        42630
#        63022
#        75175
#        96585
#        118462
#        135807
#        162797
#        180945
#        199200
#        216315
#        234355
#        251862
#
# Disc length: 3572 seconds
#
# Revision: 0
# Processed by: cddbd v1.5.2PL0 Copyright (c) Steve Scherf et al.
# Submitted via: ExactAudioCopy v0.99pb5
#
DISCID=c00df20e
DTITLE=Various Artist - Deepest Soul
DYEAR=1991
DGENRE=R&B/Soul
TTITLE0=Bobby Brown - Rock Wit'cha
TTITLE1=Ralph Tresvant - Sensitivity
TTITLE2=Love Unlimited - Walkin' In The Rain
TTITLE3=Otis Redding - (Sittin' On) The Dock Of The Bay
TTITLE4=Rose Royce - Wishing On A Star
TTITLE5=The Stylistics - You Make Me Feel Brand New
TTITLE6=Pointer Sisters - Slow Hand
TTITLE7=Imagination - Body Talk
TTITLE8=Kool and The Gang - Cherish
TTITLE9=Womack and Womack - Love Wars
TTITLE10=Gladys Knight and The Pips - Best Thing That Ever Happened To M
TTITLE10=e
TTITLE11=Patti LaBelle - If You Asked Me To
TTITLE12=Dobie Gray - Drift Away
TTITLE13=Eddie Holman - (Hey There) Lonely Girl
EXTD=
EXTT0=
EXTT1=
EXTT2=
EXTT3=
EXTT4=
EXTT5=
EXTT6=
EXTT7=
EXTT8=
EXTT9=
EXTT10=
EXTT11=
EXTT12=
EXTT13=
PLAYORDER=
